<svg width="24" height="24" viewBox="0 0 100 100" fill="none" xmlns="http://www.w3.org/2000/svg" aria-hidden="true" focusable="false">
    <defs>
      <linearGradient id="chipBodyGradient" x1="0%" y1="0%" x2="100%" y2="100%">
        <stop offset="0%" stop-color="#334155" />
        <stop offset="100%" stop-color="#0f172a" />
      </linearGradient>
      <filter id="chipGlow" x="-20%" y="-20%" width="140%" height="140%">
        <feGaussianBlur stdDeviation="2" result="blur" />
        <feComposite in="SourceGraphic" in2="blur" operator="over" />
      </filter>
    </defs>

    <!-- External Circuit Pins (North) -->
    <rect x="32" y="2" width="4" height="12" rx="1" fill="#94a3b8" />
    <rect x="48" y="0" width="4" height="14" rx="1" fill="#f5df19" />
    <rect x="64" y="2" width="4" height="12" rx="1" fill="#94a3b8" />

    <!-- External Circuit Pins (South) -->
    <rect x="32" y="86" width="4" height="12" rx="1" fill="#94a3b8" />
    <rect x="48" y="86" width="4" height="14" rx="1" fill="#f5df19" />
    <rect x="64" y="86" width="4" height="12" rx="1" fill="#94a3b8" />

    <!-- External Circuit Pins (West) -->
    <rect x="2" y="32" width="12" height="4" rx="1" fill="#94a3b8" />
    <rect x="0" y="48" width="14" height="4" rx="1" fill="#f5df19" />
    <rect x="2" y="64" width="12" height="4" rx="1" fill="#94a3b8" />

    <!-- External Circuit Pins (East) -->
    <rect x="86" y="32" width="12" height="4" rx="1" fill="#94a3b8" />
    <rect x="86" y="48" width="14" height="4" rx="1" fill="#f5df19" />
    <rect x="86" y="64" width="12" height="4" rx="1" fill="#94a3b8" />

    <!-- Main Chip Body -->
    <rect x="12" y="12" width="76" height="76" rx="8" fill="url(#chipBodyGradient)" stroke="#1e293b" stroke-width="2" />
    
    <!-- Inner Circuit Trace (Border) -->
    <rect x="18" y="18" width="64" height="64" rx="6" fill="none" stroke="#f5df19" stroke-width="0.5" opacity="0.3" />

    <!-- Center Contact Area -->
    <rect x="28" y="28" width="44" height="44" rx="4" fill="#1e293b" opacity="0.5" />

    <!-- AI Text with Glow -->
    <text
      x="50"
      y="52"
      font-family="system-ui, sans-serif"
      font-size="42"
      font-weight="900"
      fill="#f5df19"
      text-anchor="middle"
      dominant-baseline="central"
      filter="url(#chipGlow)"
      style="letter-spacing: -0.02em;"
    >
      AI
    </text>

    <!-- Corner Accents (Circuit detail) -->
    <circle cx="18" cy="18" r="1.5" fill="#f5df19" opacity="0.5" />
    <circle cx="82" cy="18" r="1.5" fill="#f5df19" opacity="0.5" />
    <circle cx="18" cy="82" r="1.5" fill="#f5df19" opacity="0.5" />
    <circle cx="82" cy="82" r="1.5" fill="#f5df19" opacity="0.5" />
</svg>